# xmcd
#
# Track frame offsets:
# 150
# 15538
# 33075
# 46418
# 62545
# 78039
# 92955
# 115294
# 132196
# 149196
# 167474
# 180701
# 198524
# 216046
#
# Disc length: 3107 seconds
#
#
# Revision: 0
# Processed by: cddbd v1.5.1PL0 Copyright (c) Steve Scherf et al.
# Submitted via: FreeRIP 2.91 
#
DISCID=bc0c210e
DTITLE=ZEZÉ DI CAMARGO E LUCIANO - COLEÇÃO DOIS CORAÇÕES E UMA HISTÓRIA
DYEAR=1900
DGENRE=Country
TTITLE0=É o Amor
TTITLE1=Coração Está Em Pedaços
TTITLE2=Eu Te Amo
TTITLE3=Coração Na Contra-Mão
TTITLE4=Quem Sou Eu Sem Ela
TTITLE5=Cara ou Coroa
TTITLE6=Águas Passadas
TTITLE7=Me Leva pra Casa
TTITLE8=Deus
TTITLE9=Garoto de Rua
TTITLE10=Muda de Vida
TTITLE11=Cama de Capim
TTITLE12=Leva Minha Timidez
TTITLE13=A Estrela Só
EXTD=
EXTT0=
EXTT1=
EXTT2=
EXTT3=
EXTT4=
EXTT5=
EXTT6=
EXTT7=
EXTT8=
EXTT9=
EXTT10=
EXTT11=
EXTT12=
EXTT13=
PLAYORDER=
